<svg xmlns="http://www.w3.org/2000/svg" xmlns:xlink="http://www.w3.org/1999/xlink" fill="none" version="1.1" width="246" height="246" viewBox="0 0 246 246"><defs><clipPath id="master_svg0_0_83"><rect x="0" y="0" width="246" height="246" rx="5"/></clipPath></defs><g clip-path="url(#master_svg0_0_83)"><g><path d="M68.4277885559082,78.1875C68.4277885559082,78.1875,68.6484885559082,79.1628,68.6484885559082,79.1628C68.6484885559082,79.1628,68.6484885559082,79.1628,68.6484885559082,79.1628C68.6484885559082,79.1628,68.4277885559082,78.1875,68.4277885559082,78.1875C68.4277885559082,78.1875,68.4277885559082,78.1875,68.4277885559082,78.1875ZM90.4609885559082,61.4614C90.4609885559082,61.4614,91.33448855590821,61.9483,91.33448855590821,61.9483C91.33448855590821,61.9483,91.33448855590821,61.9483,91.33448855590821,61.9483C91.33448855590821,61.9483,90.4609885559082,61.4614,90.4609885559082,61.4614C90.4609885559082,61.4614,90.4609885559082,61.4614,90.4609885559082,61.4614ZM82.05068855590821,73.57249999999999C82.05068855590821,73.57249999999999,81.4459885559082,72.77600000000001,81.4459885559082,72.77600000000001C81.4459885559082,72.77600000000001,82.05068855590821,73.57249999999999,82.05068855590821,73.57249999999999C82.05068855590821,73.57249999999999,82.05068855590821,73.57249999999999,82.05068855590821,73.57249999999999ZM43.8709885559082,137.65699999999998C43.8709885559082,137.65699999999998,43.11098855590821,138.30700000000002,43.11098855590821,138.30700000000002C43.11098855590821,138.30700000000002,43.11098855590821,138.30700000000002,43.11098855590821,138.30700000000002C43.11098855590821,138.30700000000002,43.8709885559082,137.65699999999998,43.8709885559082,137.65699999999998C43.8709885559082,137.65699999999998,43.8709885559082,137.65699999999998,43.8709885559082,137.65699999999998ZM61.9052885559082,79.66329999999999C61.9052885559082,79.66329999999999,61.684588555908206,78.688,61.684588555908206,78.688C61.684588555908206,78.688,61.684588555908206,78.688,61.684588555908206,78.688C61.684588555908206,78.688,61.9052885559082,79.66329999999999,61.9052885559082,79.66329999999999C61.9052885559082,79.66329999999999,61.9052885559082,79.66329999999999,61.9052885559082,79.66329999999999ZM21.088568555908203,97.8642C21.088568555908203,97.8642,20.133670555908203,97.5673,20.133670555908203,97.5673C20.133670555908203,97.5673,21.088568555908203,97.8642,21.088568555908203,97.8642C21.088568555908203,97.8642,21.088568555908203,97.8642,21.088568555908203,97.8642ZM56.733588555908206,169.92C56.733588555908206,169.92,55.738288555908206,169.823,55.738288555908206,169.823C55.738288555908206,169.823,55.738288555908206,169.823,55.738288555908206,169.823C55.738288555908206,169.823,56.733588555908206,169.92,56.733588555908206,169.92C56.733588555908206,169.92,56.733588555908206,169.92,56.733588555908206,169.92ZM48.317688555908205,142.857C48.317688555908205,142.857,49.0776885559082,142.207,49.0776885559082,142.207C49.0776885559082,142.207,49.0776885559082,142.207,49.0776885559082,142.207C49.0776885559082,142.207,48.317688555908205,142.857,48.317688555908205,142.857C48.317688555908205,142.857,48.317688555908205,142.857,48.317688555908205,142.857ZM56.742588555908206,154.957C56.742588555908206,154.957,55.787688555908204,155.254,55.787688555908204,155.254C55.787688555908204,155.254,56.742588555908206,154.957,56.742588555908206,154.957C56.742588555908206,154.957,56.742588555908206,154.957,56.742588555908206,154.957ZM103.2756885559082,212.699C103.2756885559082,212.699,103.6938885559082,213.608,103.6938885559082,213.608C103.6938885559082,213.608,103.6938885559082,213.608,103.6938885559082,213.608C103.6938885559082,213.608,103.2756885559082,212.699,103.2756885559082,212.699C103.2756885559082,212.699,103.2756885559082,212.699,103.2756885559082,212.699ZM56.061288555908206,176.858C56.061288555908206,176.858,57.0566885559082,176.954,57.0566885559082,176.954C57.0566885559082,176.954,57.0566885559082,176.954,57.0566885559082,176.954C57.0566885559082,176.954,56.061288555908206,176.858,56.061288555908206,176.858C56.061288555908206,176.858,56.061288555908206,176.858,56.061288555908206,176.858ZM60.01528855590821,223.042C60.01528855590821,223.042,60.619888555908204,222.246,60.619888555908204,222.246C60.619888555908204,222.246,60.01528855590821,223.042,60.01528855590821,223.042C60.01528855590821,223.042,60.01528855590821,223.042,60.01528855590821,223.042ZM136.61698855590822,209.888C136.61698855590822,209.888,137.0359885559082,208.979,137.0359885559082,208.979C137.0359885559082,208.979,137.0359885559082,208.979,137.0359885559082,208.979C137.0359885559082,208.979,136.61698855590822,209.888,136.61698855590822,209.888C136.61698855590822,209.888,136.61698855590822,209.888,136.61698855590822,209.888ZM109.3826885559082,209.888C109.3826885559082,209.888,108.9644885559082,208.979,108.9644885559082,208.979C108.9644885559082,208.979,108.9644885559082,208.979,108.9644885559082,208.979C108.9644885559082,208.979,109.3826885559082,209.888,109.3826885559082,209.888C109.3826885559082,209.888,109.3826885559082,209.888,109.3826885559082,209.888ZM122.9999885559082,205.255C122.9999885559082,205.255,122.9999885559082,204.255,122.9999885559082,204.255C122.9999885559082,204.255,122.9999885559082,205.255,122.9999885559082,205.255C122.9999885559082,205.255,122.9999885559082,205.255,122.9999885559082,205.255ZM189.9389885559082,176.858C189.9389885559082,176.858,190.9339885559082,176.761,190.9339885559082,176.761C190.9339885559082,176.761,190.9339885559082,176.761,190.9339885559082,176.761C190.9339885559082,176.761,189.9389885559082,176.858,189.9389885559082,176.858C189.9389885559082,176.858,189.9389885559082,176.858,189.9389885559082,176.858ZM142.7239885559082,212.7C142.7239885559082,212.7,142.3059885559082,213.608,142.3059885559082,213.608C142.3059885559082,213.608,142.3059885559082,213.608,142.3059885559082,213.608C142.3059885559082,213.608,142.7239885559082,212.7,142.7239885559082,212.7C142.7239885559082,212.7,142.7239885559082,212.7,142.7239885559082,212.7ZM185.98498855590822,223.042C185.98498855590822,223.042,186.5889885559082,223.839,186.5889885559082,223.839C186.5889885559082,223.839,185.98498855590822,223.042,185.98498855590822,223.042C185.98498855590822,223.042,185.98498855590822,223.042,185.98498855590822,223.042ZM197.6819885559082,142.857C197.6819885559082,142.857,196.9219885559082,142.207,196.9219885559082,142.207C196.9219885559082,142.207,196.9219885559082,142.207,196.9219885559082,142.207C196.9219885559082,142.207,197.6819885559082,142.857,197.6819885559082,142.857C197.6819885559082,142.857,197.6819885559082,142.857,197.6819885559082,142.857ZM189.2659885559082,169.92C189.2659885559082,169.92,188.2709885559082,170.016,188.2709885559082,170.016C188.2709885559082,170.016,188.2709885559082,170.016,188.2709885559082,170.016C188.2709885559082,170.016,189.2659885559082,169.92,189.2659885559082,169.92C189.2659885559082,169.92,189.2659885559082,169.92,189.2659885559082,169.92ZM189.2569885559082,154.957C189.2569885559082,154.957,188.3029885559082,154.66,188.3029885559082,154.66C188.3029885559082,154.66,189.2569885559082,154.957,189.2569885559082,154.957C189.2569885559082,154.957,189.2569885559082,154.957,189.2569885559082,154.957ZM184.0949885559082,79.66329999999999C184.0949885559082,79.66329999999999,183.8739885559082,80.6386,183.8739885559082,80.6386C183.8739885559082,80.6386,183.8739885559082,80.6386,183.8739885559082,80.6386C183.8739885559082,80.6386,184.0949885559082,79.66329999999999,184.0949885559082,79.66329999999999C184.0949885559082,79.66329999999999,184.0949885559082,79.66329999999999,184.0949885559082,79.66329999999999ZM202.1289885559082,137.65699999999998C202.1289885559082,137.65699999999998,202.8889885559082,138.30700000000002,202.8889885559082,138.30700000000002C202.8889885559082,138.30700000000002,202.8889885559082,138.30700000000002,202.8889885559082,138.30700000000002C202.8889885559082,138.30700000000002,202.1289885559082,137.65699999999998,202.1289885559082,137.65699999999998C202.1289885559082,137.65699999999998,202.1289885559082,137.65699999999998,202.1289885559082,137.65699999999998ZM224.9109885559082,97.8642C224.9109885559082,97.8642,225.86598855590822,97.5673,225.86598855590822,97.5673C225.86598855590822,97.5673,224.9109885559082,97.8642,224.9109885559082,97.8642C224.9109885559082,97.8642,224.9109885559082,97.8642,224.9109885559082,97.8642ZM155.5389885559082,61.4614C155.5389885559082,61.4614,156.4119885559082,60.9745,156.4119885559082,60.9745C156.4119885559082,60.9745,156.4119885559082,60.9745,156.4119885559082,60.9745C156.4119885559082,60.9745,155.5389885559082,61.4614,155.5389885559082,61.4614C155.5389885559082,61.4614,155.5389885559082,61.4614,155.5389885559082,61.4614ZM177.5719885559082,78.1875C177.5719885559082,78.1875,177.7929885559082,77.21209999999999,177.7929885559082,77.21209999999999C177.7929885559082,77.21209999999999,177.7929885559082,77.21209999999999,177.7929885559082,77.21209999999999C177.7929885559082,77.21209999999999,177.5719885559082,78.1875,177.5719885559082,78.1875C177.5719885559082,78.1875,177.5719885559082,78.1875,177.5719885559082,78.1875ZM163.94898855590822,73.57249999999999C163.94898855590822,73.57249999999999,164.5539885559082,72.77600000000001,164.5539885559082,72.77600000000001C164.5539885559082,72.77600000000001,163.94898855590822,73.57249999999999,163.94898855590822,73.57249999999999C163.94898855590822,73.57249999999999,163.94898855590822,73.57249999999999,163.94898855590822,73.57249999999999ZM152.1799885559082,55.4358C152.1799885559082,55.4358,151.3069885559082,55.9227,151.3069885559082,55.9227C151.3069885559082,55.9227,151.3069885559082,55.9227,151.3069885559082,55.9227C151.3069885559082,55.9227,152.1799885559082,55.4358,152.1799885559082,55.4358C152.1799885559082,55.4358,152.1799885559082,55.4358,152.1799885559082,55.4358ZM93.81988855590821,55.4359C93.81988855590821,55.4359,92.9464885559082,54.9489,92.9464885559082,54.9489C92.9464885559082,54.9489,92.9464885559082,54.9489,92.9464885559082,54.9489C92.9464885559082,54.9489,93.81988855590821,55.4359,93.81988855590821,55.4359C93.81988855590821,55.4359,93.81988855590821,55.4359,93.81988855590821,55.4359ZM122.9999885559082,20.5C122.9999885559082,20.5,122.9999885559082,19.5,122.9999885559082,19.5C122.9999885559082,19.5,122.9999885559082,20.5,122.9999885559082,20.5C122.9999885559082,20.5,122.9999885559082,20.5,122.9999885559082,20.5ZM68.2071885559082,77.2122C68.2071885559082,77.2122,65.83528855590819,77.7488,65.83528855590819,77.7488C65.83528855590819,77.7488,66.27668855590821,79.6995,66.27668855590821,79.6995C66.27668855590821,79.6995,68.6484885559082,79.1628,68.6484885559082,79.1628C68.6484885559082,79.1628,68.2071885559082,77.2122,68.2071885559082,77.2122C68.2071885559082,77.2122,68.2071885559082,77.2122,68.2071885559082,77.2122ZM64.0563885559082,78.15129999999999C64.0563885559082,78.15129999999999,61.684588555908206,78.688,61.684588555908206,78.688C61.684588555908206,78.688,62.125888555908205,80.6386,62.125888555908205,80.6386C62.125888555908205,80.6386,64.4977885559082,80.102,64.4977885559082,80.102C64.4977885559082,80.102,64.0563885559082,78.15129999999999,64.0563885559082,78.15129999999999C64.0563885559082,78.15129999999999,64.0563885559082,78.15129999999999,64.0563885559082,78.15129999999999ZM61.684588555908206,78.688C58.774188555908204,79.3464,56.0287885559082,79.9676,53.4463885559082,80.56569999999999C53.4463885559082,80.56569999999999,53.8976885559082,82.5141,53.8976885559082,82.5141C56.474188555908206,81.9174,59.214488555908204,81.29740000000001,62.125888555908205,80.6386C62.125888555908205,80.6386,61.684588555908206,78.688,61.684588555908206,78.688C61.684588555908206,78.688,61.684588555908206,78.688,61.684588555908206,78.688ZM47.279188555908206,82.0334C40.618388555908204,83.6752,35.2186885559082,85.2429,31.020988555908204,87.0977C31.020988555908204,87.0977,31.829388555908203,88.9271,31.829388555908203,88.9271C35.8569885559082,87.1474,41.1124885559082,85.6133,47.757788555908206,83.9753C47.757788555908206,83.9753,47.279188555908206,82.0334,47.279188555908206,82.0334C47.279188555908206,82.0334,47.279188555908206,82.0334,47.279188555908206,82.0334ZM25.339778555908204,90.3437C22.775878555908204,92.3033,21.043778555908204,94.6406,20.133670555908203,97.5673C20.133670555908203,97.5673,22.043458555908202,98.1612,22.043458555908202,98.1612C22.816068555908203,95.6767,24.278808555908203,93.6719,26.554298555908204,91.9327C26.554298555908204,91.9327,25.339778555908204,90.3437,25.339778555908204,90.3437C25.339778555908204,90.3437,25.339778555908204,90.3437,25.339778555908204,90.3437ZM20.133670555908203,97.5673C19.217550555908204,100.5133,19.3135205559082,103.4795,20.300132555908203,106.65C20.300132555908203,106.65,22.209798555908204,106.0557,22.209798555908204,106.0557C21.3250185559082,103.2125,21.264968555908204,100.6646,22.043458555908202,98.1612C22.043458555908202,98.1612,20.133670555908203,97.5673,20.133670555908203,97.5673C20.133670555908203,97.5673,20.133670555908203,97.5673,20.133670555908203,97.5673ZM23.066158555908203,112.7231C25.415988555908203,116.7874,28.892968555908205,121.358,33.3462885559082,126.762C33.3462885559082,126.762,34.889788555908204,125.49,34.889788555908204,125.49C30.446388555908204,120.098,27.059548555908204,115.6343,24.797598555908202,111.7221C24.797598555908202,111.7221,23.066158555908203,112.7231,23.066158555908203,112.7231C23.066158555908203,112.7231,23.066158555908203,112.7231,23.066158555908203,112.7231ZM37.50608855590821,131.732C39.257788555908206,133.801,41.1281885559082,135.988,43.11098855590821,138.30700000000002C43.11098855590821,138.30700000000002,44.6309885559082,137.007,44.6309885559082,137.007C42.647488555908204,134.687,40.7802885559082,132.50400000000002,39.0323885559082,130.44C39.0323885559082,130.44,37.50608855590821,131.732,37.50608855590821,131.732C37.50608855590821,131.732,37.50608855590821,131.732,37.50608855590821,131.732ZM43.11098855590821,138.30700000000002C43.11098855590821,138.30700000000002,44.727988555908205,140.197,44.727988555908205,140.197C44.727988555908205,140.197,46.24798855590821,138.898,46.24798855590821,138.898C46.24798855590821,138.898,44.6309885559082,137.007,44.6309885559082,137.007C44.6309885559082,137.007,43.11098855590821,138.30700000000002,43.11098855590821,138.30700000000002C43.11098855590821,138.30700000000002,43.11098855590821,138.30700000000002,43.11098855590821,138.30700000000002ZM45.9406885559082,141.61599999999999C45.9406885559082,141.61599999999999,47.5576885559082,143.506,47.5576885559082,143.506C47.5576885559082,143.506,49.0776885559082,142.207,49.0776885559082,142.207C49.0776885559082,142.207,47.460688555908206,140.316,47.460688555908206,140.316C47.460688555908206,140.316,45.9406885559082,141.61599999999999,45.9406885559082,141.61599999999999C45.9406885559082,141.61599999999999,45.9406885559082,141.61599999999999,45.9406885559082,141.61599999999999ZM47.5576885559082,143.506C48.8970885559082,145.07299999999998,50.0447885559082,146.41500000000002,51.031288555908205,147.614C51.031288555908205,147.614,52.5758885559082,146.344,52.5758885559082,146.344C51.5746885559082,145.127,50.4133885559082,143.769,49.0776885559082,142.207C49.0776885559082,142.207,47.5576885559082,143.506,47.5576885559082,143.506C47.5576885559082,143.506,47.5576885559082,143.506,47.5576885559082,143.506ZM53.4581885559082,150.756C54.593188555908206,152.375,55.3230885559082,153.76,55.787688555908204,155.254C55.787688555908204,155.254,57.6974885559082,154.66,57.6974885559082,154.66C57.1542885559082,152.913,56.3111885559082,151.341,55.0958885559082,149.608C55.0958885559082,149.608,53.4581885559082,150.756,53.4581885559082,150.756C53.4581885559082,150.756,53.4581885559082,150.756,53.4581885559082,150.756ZM55.787688555908204,155.254C56.254788555908206,156.756,56.443288555908204,158.335,56.4337885559082,160.36C56.4337885559082,160.36,58.4337885559082,160.37,58.4337885559082,160.37C58.4438885559082,158.21,58.243188555908205,156.415,57.6974885559082,154.66C57.6974885559082,154.66,55.787688555908204,155.254,55.787688555908204,155.254C55.787688555908204,155.254,55.787688555908204,155.254,55.787688555908204,155.254ZM56.2359885559082,164.387C56.1126885559082,165.959,55.9397885559082,167.743,55.738288555908206,169.823C55.738288555908206,169.823,57.728888555908206,170.016,57.728888555908206,170.016C57.9299885559082,167.942,58.104888555908204,166.137,58.229888555908204,164.544C58.229888555908204,164.544,56.2359885559082,164.387,56.2359885559082,164.387C56.2359885559082,164.387,56.2359885559082,164.387,56.2359885559082,164.387ZM55.738288555908206,169.823C55.738288555908206,169.823,55.4937885559082,172.346,55.4937885559082,172.346C55.4937885559082,172.346,57.4844885559082,172.539,57.4844885559082,172.539C57.4844885559082,172.539,57.728888555908206,170.016,57.728888555908206,170.016C57.728888555908206,170.016,55.738288555908206,169.823,55.738288555908206,169.823C55.738288555908206,169.823,55.738288555908206,169.823,55.738288555908206,169.823ZM55.310388555908204,174.238C55.310388555908204,174.238,55.065988555908206,176.761,55.065988555908206,176.761C55.065988555908206,176.761,57.0566885559082,176.954,57.0566885559082,176.954C57.0566885559082,176.954,57.3010885559082,174.431,57.3010885559082,174.431C57.3010885559082,174.431,55.310388555908204,174.238,55.310388555908204,174.238C55.310388555908204,174.238,55.310388555908204,174.238,55.310388555908204,174.238ZM55.065988555908206,176.761C54.7687885559082,179.827,54.4883885559082,182.721,54.2366885559082,185.449C54.2366885559082,185.449,56.228188555908204,185.633,56.228188555908204,185.633C56.479488555908205,182.911,56.7593885559082,180.021,57.0566885559082,176.954C57.0566885559082,176.954,55.065988555908206,176.761,55.065988555908206,176.761C55.065988555908206,176.761,55.065988555908206,176.761,55.065988555908206,176.761ZM53.6705885559082,191.972C53.1099885559082,199.021,52.8622885559082,204.818,53.223488555908204,209.532C53.223488555908204,209.532,55.2175885559082,209.379,55.2175885559082,209.379C54.869088555908206,204.831,55.1047885559082,199.165,55.6642885559082,192.13C55.6642885559082,192.13,53.6705885559082,191.972,53.6705885559082,191.972C53.6705885559082,191.972,53.6705885559082,191.972,53.6705885559082,191.972ZM54.3594885559082,216.172C55.3391885559082,219.436,56.9478885559082,221.969,59.410588555908205,223.839C59.410588555908205,223.839,60.619888555908204,222.246,60.619888555908204,222.246C58.5542885559082,220.678,57.156488555908204,218.534,56.275088555908205,215.597C56.275088555908205,215.597,54.3594885559082,216.172,54.3594885559082,216.172C54.3594885559082,216.172,54.3594885559082,216.172,54.3594885559082,216.172ZM59.410588555908205,223.839C61.8515885559082,225.692,64.6382885559082,226.518,67.8959885559082,226.5C67.8959885559082,226.5,67.88468855590821,224.5,67.88468855590821,224.5C65.0043885559082,224.516,62.6627885559082,223.797,60.619888555908204,222.246C60.619888555908204,222.246,59.410588555908205,223.839,59.410588555908205,223.839C59.410588555908205,223.839,59.410588555908205,223.839,59.410588555908205,223.839ZM74.3575885559082,225.587C78.7803885559082,224.49,84.00318855590821,222.445,90.2705885559082,219.699C90.2705885559082,219.699,89.46808855590821,217.867,89.46808855590821,217.867C83.21418855590821,220.607,78.1230885559082,222.593,73.87638855590819,223.645C73.87638855590819,223.645,74.3575885559082,225.587,74.3575885559082,225.587C74.3575885559082,225.587,74.3575885559082,225.587,74.3575885559082,225.587ZM96.0384885559082,217.118C98.4447885559082,216.025,100.9934885559082,214.851,103.6938885559082,213.608C103.6938885559082,213.608,102.8573885559082,211.791,102.8573885559082,211.791C100.15598855590821,213.035,97.6119885559082,214.206,95.2109885559082,215.297C95.2109885559082,215.297,96.0384885559082,217.118,96.0384885559082,217.118C96.0384885559082,217.118,96.0384885559082,217.118,96.0384885559082,217.118ZM103.6938885559082,213.608C103.6938885559082,213.608,105.9145885559082,212.585,105.9145885559082,212.585C105.9145885559082,212.585,105.0781885559082,210.769,105.0781885559082,210.769C105.0781885559082,210.769,102.8573885559082,211.791,102.8573885559082,211.791C102.8573885559082,211.791,103.6938885559082,213.608,103.6938885559082,213.608C103.6938885559082,213.608,103.6938885559082,213.608,103.6938885559082,213.608ZM107.58018855590821,211.818C107.58018855590821,211.818,109.8009885559082,210.796,109.8009885559082,210.796C109.8009885559082,210.796,108.9644885559082,208.979,108.9644885559082,208.979C108.9644885559082,208.979,106.7437885559082,210.002,106.7437885559082,210.002C106.7437885559082,210.002,107.58018855590821,211.818,107.58018855590821,211.818C107.58018855590821,211.818,107.58018855590821,211.818,107.58018855590821,211.818ZM109.8009885559082,210.796C111.6279885559082,209.955,113.19448855590821,209.233,114.5833885559082,208.627C114.5833885559082,208.627,113.78268855590821,206.794,113.78268855590821,206.794C112.37218855590821,207.41,110.7861885559082,208.14,108.9644885559082,208.979C108.9644885559082,208.979,109.8009885559082,210.796,109.8009885559082,210.796C109.8009885559082,210.796,109.8009885559082,210.796,109.8009885559082,210.796ZM118.1775885559082,207.189C120.01598855590821,206.553,121.5019885559082,206.255,122.9999885559082,206.255C122.9999885559082,206.255,122.9999885559082,204.255,122.9999885559082,204.255C121.2129885559082,204.255,119.4997885559082,204.615,117.5241885559082,205.298C117.5241885559082,205.298,118.1775885559082,207.189,118.1775885559082,207.189C118.1775885559082,207.189,118.1775885559082,207.189,118.1775885559082,207.189ZM122.9999885559082,206.255C124.49798855590821,206.255,125.9839885559082,206.553,127.8219885559082,207.189C127.8219885559082,207.189,128.4759885559082,205.298,128.4759885559082,205.298C126.4999885559082,204.615,124.78698855590821,204.255,122.9999885559082,204.255C122.9999885559082,204.255,122.9999885559082,206.255,122.9999885559082,206.255C122.9999885559082,206.255,122.9999885559082,206.255,122.9999885559082,206.255ZM131.4169885559082,208.627C132.8049885559082,209.233,134.37198855590822,209.955,136.19898855590822,210.796C136.19898855590822,210.796,137.0359885559082,208.979,137.0359885559082,208.979C135.2139885559082,208.14,133.6279885559082,207.41,132.2169885559082,206.794C132.2169885559082,206.794,131.4169885559082,208.627,131.4169885559082,208.627C131.4169885559082,208.627,131.4169885559082,208.627,131.4169885559082,208.627ZM136.19898855590822,210.796C136.19898855590822,210.796,138.41998855590822,211.818,138.41998855590822,211.818C138.41998855590822,211.818,139.2559885559082,210.002,139.2559885559082,210.002C139.2559885559082,210.002,137.0359885559082,208.979,137.0359885559082,208.979C137.0359885559082,208.979,136.19898855590822,210.796,136.19898855590822,210.796C136.19898855590822,210.796,136.19898855590822,210.796,136.19898855590822,210.796ZM140.08498855590818,212.585C140.08498855590818,212.585,142.3059885559082,213.608,142.3059885559082,213.608C142.3059885559082,213.608,143.1429885559082,211.791,143.1429885559082,211.791C143.1429885559082,211.791,140.9219885559082,210.769,140.9219885559082,210.769C140.9219885559082,210.769,140.08498855590818,212.585,140.08498855590818,212.585C140.08498855590818,212.585,140.08498855590818,212.585,140.08498855590818,212.585ZM142.3059885559082,213.608C145.0069885559082,214.851,147.5549885559082,216.025,149.9619885559082,217.118C149.9619885559082,217.118,150.7889885559082,215.297,150.7889885559082,215.297C148.3879885559082,214.206,145.8439885559082,213.035,143.1429885559082,211.791C143.1429885559082,211.791,142.3059885559082,213.608,142.3059885559082,213.608C142.3059885559082,213.608,142.3059885559082,213.608,142.3059885559082,213.608ZM155.72898855590822,219.699C161.99698855590822,222.445,167.2199885559082,224.49,171.6419885559082,225.587C171.6419885559082,225.587,172.1239885559082,223.645,172.1239885559082,223.645C167.8769885559082,222.593,162.7859885559082,220.607,156.5319885559082,217.867C156.5319885559082,217.867,155.72898855590822,219.699,155.72898855590822,219.699C155.72898855590822,219.699,155.72898855590822,219.699,155.72898855590822,219.699ZM178.10398855590822,226.5C181.3619885559082,226.518,184.1479885559082,225.692,186.5889885559082,223.839C186.5889885559082,223.839,185.3799885559082,222.246,185.3799885559082,222.246C183.3369885559082,223.797,180.9959885559082,224.516,178.1149885559082,224.5C178.1149885559082,224.5,178.10398855590822,226.5,178.10398855590822,226.5C178.10398855590822,226.5,178.10398855590822,226.5,178.10398855590822,226.5ZM186.5889885559082,223.839C189.0519885559082,221.969,190.6609885559082,219.436,191.6399885559082,216.172C191.6399885559082,216.172,189.7249885559082,215.597,189.7249885559082,215.597C188.8429885559082,218.534,187.4459885559082,220.678,185.3799885559082,222.246C185.3799885559082,222.246,186.5889885559082,223.839,186.5889885559082,223.839C186.5889885559082,223.839,186.5889885559082,223.839,186.5889885559082,223.839ZM192.7769885559082,209.532C193.1379885559082,204.818,192.8899885559082,199.021,192.3289885559082,191.972C192.3289885559082,191.972,190.33598855590822,192.13,190.33598855590822,192.13C190.8949885559082,199.165,191.1309885559082,204.831,190.7819885559082,209.379C190.7819885559082,209.379,192.7769885559082,209.532,192.7769885559082,209.532C192.7769885559082,209.532,192.7769885559082,209.532,192.7769885559082,209.532ZM191.7629885559082,185.449C191.5119885559082,182.721,191.2309885559082,179.827,190.9339885559082,176.761C190.9339885559082,176.761,188.94298855590822,176.954,188.94298855590822,176.954C189.24098855590822,180.021,189.5209885559082,182.91,189.7719885559082,185.633C189.7719885559082,185.633,191.7629885559082,185.449,191.7629885559082,185.449C191.7629885559082,185.449,191.7629885559082,185.449,191.7629885559082,185.449ZM190.9339885559082,176.761C190.9339885559082,176.761,190.6899885559082,174.238,190.6899885559082,174.238C190.6899885559082,174.238,188.69898855590822,174.431,188.69898855590822,174.431C188.69898855590822,174.431,188.94298855590822,176.954,188.94298855590822,176.954C188.94298855590822,176.954,190.9339885559082,176.761,190.9339885559082,176.761C190.9339885559082,176.761,190.9339885559082,176.761,190.9339885559082,176.761ZM190.5059885559082,172.346C190.5059885559082,172.346,190.2619885559082,169.823,190.2619885559082,169.823C190.2619885559082,169.823,188.2709885559082,170.016,188.2709885559082,170.016C188.2709885559082,170.016,188.5159885559082,172.539,188.5159885559082,172.539C188.5159885559082,172.539,190.5059885559082,172.346,190.5059885559082,172.346C190.5059885559082,172.346,190.5059885559082,172.346,190.5059885559082,172.346ZM190.2619885559082,169.823C190.0599885559082,167.743,189.8869885559082,165.959,189.7639885559082,164.387C189.7639885559082,164.387,187.7699885559082,164.544,187.7699885559082,164.544C187.8949885559082,166.137,188.0699885559082,167.942,188.2709885559082,170.016C188.2709885559082,170.016,190.2619885559082,169.823,190.2619885559082,169.823C190.2619885559082,169.823,190.2619885559082,169.823,190.2619885559082,169.823ZM189.5659885559082,160.36C189.5569885559082,158.335,189.7449885559082,156.756,190.2119885559082,155.254C190.2119885559082,155.254,188.3029885559082,154.66,188.3029885559082,154.66C187.7569885559082,156.415,187.55598855590821,158.21,187.5659885559082,160.37C187.5659885559082,160.37,189.5659885559082,160.36,189.5659885559082,160.36C189.5659885559082,160.36,189.5659885559082,160.36,189.5659885559082,160.36ZM190.2119885559082,155.254C190.6769885559082,153.76,191.4069885559082,152.375,192.5419885559082,150.756C192.5419885559082,150.756,190.9039885559082,149.608,190.9039885559082,149.608C189.6889885559082,151.341,188.8459885559082,152.913,188.3029885559082,154.66C188.3029885559082,154.66,190.2119885559082,155.254,190.2119885559082,155.254C190.2119885559082,155.254,190.2119885559082,155.254,190.2119885559082,155.254ZM194.9689885559082,147.614C195.95498855590822,146.41500000000002,197.1029885559082,145.07299999999998,198.4419885559082,143.506C198.4419885559082,143.506,196.9219885559082,142.207,196.9219885559082,142.207C195.5869885559082,143.769,194.42498855590821,145.127,193.4239885559082,146.344C193.4239885559082,146.344,194.9689885559082,147.614,194.9689885559082,147.614C194.9689885559082,147.614,194.9689885559082,147.614,194.9689885559082,147.614ZM198.4419885559082,143.506C198.4419885559082,143.506,200.0589885559082,141.61599999999999,200.0589885559082,141.61599999999999C200.0589885559082,141.61599999999999,198.5389885559082,140.316,198.5389885559082,140.316C198.5389885559082,140.316,196.9219885559082,142.207,196.9219885559082,142.207C196.9219885559082,142.207,198.4419885559082,143.506,198.4419885559082,143.506C198.4419885559082,143.506,198.4419885559082,143.506,198.4419885559082,143.506ZM201.2719885559082,140.197C201.2719885559082,140.197,202.8889885559082,138.30700000000002,202.8889885559082,138.30700000000002C202.8889885559082,138.30700000000002,201.3689885559082,137.007,201.3689885559082,137.007C201.3689885559082,137.007,199.7519885559082,138.898,199.7519885559082,138.898C199.7519885559082,138.898,201.2719885559082,140.197,201.2719885559082,140.197C201.2719885559082,140.197,201.2719885559082,140.197,201.2719885559082,140.197ZM202.8889885559082,138.30700000000002C204.87198855590822,135.988,206.7419885559082,133.801,208.4939885559082,131.732C208.4939885559082,131.732,206.9679885559082,130.44,206.9679885559082,130.44C205.2199885559082,132.50400000000002,203.3529885559082,134.687,201.3689885559082,137.007C201.3689885559082,137.007,202.8889885559082,138.30700000000002,202.8889885559082,138.30700000000002C202.8889885559082,138.30700000000002,202.8889885559082,138.30700000000002,202.8889885559082,138.30700000000002ZM212.6539885559082,126.762C217.1069885559082,121.358,220.5839885559082,116.7874,222.9339885559082,112.7231C222.9339885559082,112.7231,221.2019885559082,111.722,221.2019885559082,111.722C218.9399885559082,115.6343,215.5539885559082,120.098,211.10998855590822,125.49C211.10998855590822,125.49,212.6539885559082,126.762,212.6539885559082,126.762C212.6539885559082,126.762,212.6539885559082,126.762,212.6539885559082,126.762ZM225.6999885559082,106.65C226.6859885559082,103.4795,226.7819885559082,100.5133,225.86598855590822,97.5673C225.86598855590822,97.5673,223.9569885559082,98.1612,223.9569885559082,98.1612C224.73498855590822,100.6646,224.67498855590821,103.2125,223.7899885559082,106.0557C223.7899885559082,106.0557,225.6999885559082,106.65,225.6999885559082,106.65C225.6999885559082,106.65,225.6999885559082,106.65,225.6999885559082,106.65ZM225.86598855590822,97.5673C224.9559885559082,94.6406,223.2239885559082,92.3033,220.6599885559082,90.3437C220.6599885559082,90.3437,219.4459885559082,91.9327,219.4459885559082,91.9327C221.7209885559082,93.6719,223.1839885559082,95.6767,223.9569885559082,98.1612C223.9569885559082,98.1612,225.86598855590822,97.5673,225.86598855590822,97.5673C225.86598855590822,97.5673,225.86598855590822,97.5673,225.86598855590822,97.5673ZM214.97898855590822,87.0977C210.7809885559082,85.2429,205.3819885559082,83.6752,198.7209885559082,82.0334C198.7209885559082,82.0334,198.2419885559082,83.9753,198.2419885559082,83.9753C204.8869885559082,85.6133,210.1429885559082,87.1474,214.1709885559082,88.9271C214.1709885559082,88.9271,214.97898855590822,87.0977,214.97898855590822,87.0977C214.97898855590822,87.0977,214.97898855590822,87.0977,214.97898855590822,87.0977ZM192.5539885559082,80.56569999999999C189.9709885559082,79.9676,187.2259885559082,79.3464,184.3149885559082,78.6879C184.3149885559082,78.6879,183.8739885559082,80.6386,183.8739885559082,80.6386C186.7859885559082,81.29740000000001,189.5259885559082,81.9174,192.1019885559082,82.5141C192.1019885559082,82.5141,192.5539885559082,80.56569999999999,192.5539885559082,80.56569999999999C192.5539885559082,80.56569999999999,192.5539885559082,80.56569999999999,192.5539885559082,80.56569999999999ZM184.3149885559082,78.6879C184.3149885559082,78.6879,181.9439885559082,78.15129999999999,181.9439885559082,78.15129999999999C181.9439885559082,78.15129999999999,181.5019885559082,80.102,181.5019885559082,80.102C181.5019885559082,80.102,183.8739885559082,80.6386,183.8739885559082,80.6386C183.8739885559082,80.6386,184.3149885559082,78.6879,184.3149885559082,78.6879C184.3149885559082,78.6879,184.3149885559082,78.6879,184.3149885559082,78.6879ZM180.1649885559082,77.7488C180.1649885559082,77.7488,177.7929885559082,77.21209999999999,177.7929885559082,77.21209999999999C177.7929885559082,77.21209999999999,177.3509885559082,79.1628,177.3509885559082,79.1628C177.3509885559082,79.1628,179.72298855590822,79.6995,179.72298855590822,79.6995C179.72298855590822,79.6995,180.1649885559082,77.7488,180.1649885559082,77.7488C180.1649885559082,77.7488,180.1649885559082,77.7488,180.1649885559082,77.7488ZM177.7929885559082,77.21209999999999C175.82998855590822,76.7681,174.1489885559082,76.3878,172.6789885559082,76.0239C172.6789885559082,76.0239,172.1979885559082,77.9653,172.1979885559082,77.9653C173.69298855590822,78.33500000000001,175.3949885559082,78.7201,177.3509885559082,79.1628C177.3509885559082,79.1628,177.7929885559082,77.21209999999999,177.7929885559082,77.21209999999999C177.7929885559082,77.21209999999999,177.7929885559082,77.21209999999999,177.7929885559082,77.21209999999999ZM168.9539885559082,74.975C167.1269885559082,74.36330000000001,165.7639885559082,73.6942,164.5539885559082,72.77600000000001C164.5539885559082,72.77600000000001,163.3449885559082,74.369,163.3449885559082,74.369C164.7769885559082,75.456,166.3519885559082,76.2131,168.3189885559082,76.8715C168.3189885559082,76.8715,168.9539885559082,74.975,168.9539885559082,74.975C168.9539885559082,74.975,168.9539885559082,74.975,168.9539885559082,74.975ZM164.5539885559082,72.77600000000001C163.3329885559082,71.8493,162.2929885559082,70.6867,161.1559885559082,69.0327C161.1559885559082,69.0327,159.5079885559082,70.1652,159.5079885559082,70.1652C160.7209885559082,71.93180000000001,161.9019885559082,73.2738,163.3449885559082,74.369C163.3449885559082,74.369,164.5539885559082,72.77600000000001,164.5539885559082,72.77600000000001C164.5539885559082,72.77600000000001,164.5539885559082,72.77600000000001,164.5539885559082,72.77600000000001ZM159.0579885559082,65.66069999999999C158.2759885559082,64.3177,157.4149885559082,62.7736,156.4119885559082,60.9745C156.4119885559082,60.9745,154.6659885559082,61.9483,154.6659885559082,61.9483C155.6659885559082,63.7426,156.5359885559082,65.3043,157.3289885559082,66.66669999999999C157.3289885559082,66.66669999999999,159.0579885559082,65.66069999999999,159.0579885559082,65.66069999999999C159.0579885559082,65.66069999999999,159.0579885559082,65.66069999999999,159.0579885559082,65.66069999999999ZM156.4119885559082,60.9745C156.4119885559082,60.9745,155.1909885559082,58.7834,155.1909885559082,58.7834C155.1909885559082,58.7834,153.4439885559082,59.7572,153.4439885559082,59.7572C153.4439885559082,59.7572,154.6659885559082,61.9483,154.6659885559082,61.9483C154.6659885559082,61.9483,156.4119885559082,60.9745,156.4119885559082,60.9745C156.4119885559082,60.9745,156.4119885559082,60.9745,156.4119885559082,60.9745ZM154.2749885559082,57.14C154.2749885559082,57.14,153.0539885559082,54.9489,153.0539885559082,54.9489C153.0539885559082,54.9489,151.3069885559082,55.9227,151.3069885559082,55.9227C151.3069885559082,55.9227,152.5279885559082,58.1138,152.5279885559082,58.1138C152.5279885559082,58.1138,154.2749885559082,57.14,154.2749885559082,57.14C154.2749885559082,57.14,154.2749885559082,57.14,154.2749885559082,57.14ZM153.0539885559082,54.9489C151.5769885559082,52.2997,150.1819885559082,49.7986,148.8579885559082,47.447900000000004C148.8579885559082,47.447900000000004,147.1149885559082,48.4298,147.1149885559082,48.4298C148.43698855590821,50.7757,149.8289885559082,53.2726,151.3069885559082,55.9227C151.3069885559082,55.9227,153.0539885559082,54.9489,153.0539885559082,54.9489C153.0539885559082,54.9489,153.0539885559082,54.9489,153.0539885559082,54.9489ZM145.6619885559082,41.848C142.1609885559082,35.817499999999995,139.1079885559082,30.9802,136.1719885559082,27.38187C136.1719885559082,27.38187,134.6229885559082,28.646140000000003,134.6229885559082,28.646140000000003C137.4509885559082,32.1136,140.4379885559082,36.8337,143.93198855590822,42.8521C143.93198855590822,42.8521,145.6619885559082,41.848,145.6619885559082,41.848C145.6619885559082,41.848,145.6619885559082,41.848,145.6619885559082,41.848ZM131.49598855590818,22.65863C128.8389885559082,20.58278,126.0809885559082,19.5,122.9999885559082,19.5C122.9999885559082,19.5,122.9999885559082,21.5,122.9999885559082,21.5C125.5569885559082,21.5,127.8929885559082,22.38164,130.2649885559082,24.23463C130.2649885559082,24.23463,131.49598855590818,22.65863,131.49598855590818,22.65863C131.49598855590818,22.65863,131.49598855590818,22.65863,131.49598855590818,22.65863ZM122.9999885559082,19.5C119.9199885559082,19.5,117.1607885559082,20.58278,114.5038885559082,22.65864C114.5038885559082,22.65864,115.73518855590821,24.23463,115.73518855590821,24.23463C118.1068885559082,22.38164,120.4429885559082,21.5,122.9999885559082,21.5C122.9999885559082,21.5,122.9999885559082,19.5,122.9999885559082,19.5C122.9999885559082,19.5,122.9999885559082,19.5,122.9999885559082,19.5ZM109.8276885559082,27.38187C106.8920885559082,30.9802,103.83918855590821,35.817499999999995,100.3384885559082,41.848C100.3384885559082,41.848,102.06818855590821,42.8521,102.06818855590821,42.8521C105.56178855590821,36.8337,108.5485885559082,32.1136,111.3773885559082,28.64615C111.3773885559082,28.64615,109.8276885559082,27.38187,109.8276885559082,27.38187C109.8276885559082,27.38187,109.8276885559082,27.38187,109.8276885559082,27.38187ZM97.1421885559082,47.447900000000004C95.8174885559082,49.7986,94.4232885559082,52.2997,92.9464885559082,54.9489C92.9464885559082,54.9489,94.6933885559082,55.9228,94.6933885559082,55.9228C96.1706885559082,53.2726,97.5625885559082,50.7757,98.88458855590821,48.4298C98.88458855590821,48.4298,97.1421885559082,47.447900000000004,97.1421885559082,47.447900000000004C97.1421885559082,47.447900000000004,97.1421885559082,47.447900000000004,97.1421885559082,47.447900000000004ZM92.9464885559082,54.9489C92.9464885559082,54.9489,91.7250885559082,57.1401,91.7250885559082,57.1401C91.7250885559082,57.1401,93.4719885559082,58.1139,93.4719885559082,58.1139C93.4719885559082,58.1139,94.6933885559082,55.9228,94.6933885559082,55.9228C94.6933885559082,55.9228,92.9464885559082,54.9489,92.9464885559082,54.9489C92.9464885559082,54.9489,92.9464885559082,54.9489,92.9464885559082,54.9489ZM90.8089885559082,58.7834C90.8089885559082,58.7834,89.5875885559082,60.9745,89.5875885559082,60.9745C89.5875885559082,60.9745,91.33448855590821,61.9483,91.33448855590821,61.9483C91.33448855590821,61.9483,92.5558885559082,59.7572,92.5558885559082,59.7572C92.5558885559082,59.7572,90.8089885559082,58.7834,90.8089885559082,58.7834C90.8089885559082,58.7834,90.8089885559082,58.7834,90.8089885559082,58.7834ZM89.5875885559082,60.9745C88.5845885559082,62.7737,87.7238885559082,64.3177,86.9422885559082,65.66069999999999C86.9422885559082,65.66069999999999,88.6708885559082,66.66669999999999,88.6708885559082,66.66669999999999C89.4636885559082,65.3044,90.3341885559082,63.7427,91.33448855590821,61.9483C91.33448855590821,61.9483,89.5875885559082,60.9745,89.5875885559082,60.9745C89.5875885559082,60.9745,89.5875885559082,60.9745,89.5875885559082,60.9745ZM84.8435885559082,69.0327C83.70738855590821,70.6867,82.6666885559082,71.8493,81.4459885559082,72.77600000000001C81.4459885559082,72.77600000000001,82.6552885559082,74.369,82.6552885559082,74.369C84.0979885559082,73.2738,85.2784885559082,71.9319,86.4920885559082,70.1652C86.4920885559082,70.1652,84.8435885559082,69.0327,84.8435885559082,69.0327C84.8435885559082,69.0327,84.8435885559082,69.0327,84.8435885559082,69.0327ZM81.4459885559082,72.77600000000001C80.23648855590821,73.6942,78.8731885559082,74.36330000000001,77.0461885559082,74.975C77.0461885559082,74.975,77.6810885559082,76.8715,77.6810885559082,76.8715C79.6476885559082,76.2131,81.2234885559082,75.456,82.6552885559082,74.369C82.6552885559082,74.369,81.4459885559082,72.77600000000001,81.4459885559082,72.77600000000001C81.4459885559082,72.77600000000001,81.4459885559082,72.77600000000001,81.4459885559082,72.77600000000001ZM73.32128855590821,76.0239C71.8504885559082,76.3878,70.1695885559082,76.7681,68.2071885559082,77.2122C68.2071885559082,77.2122,68.6484885559082,79.1628,68.6484885559082,79.1628C70.6051885559082,78.7201,72.3073885559082,78.33500000000001,73.80158855590821,77.9653C73.80158855590821,77.9653,73.32128855590821,76.0239,73.32128855590821,76.0239C73.32128855590821,76.0239,73.32128855590821,76.0239,73.32128855590821,76.0239Z" fill="#262626" fill-opacity="1"/></g></g></svg>